<?xml version="1.0" encoding="utf-8"?>
<!-- Generator: Adobe Illustrator 19.2.1, SVG Export Plug-In . SVG Version: 6.00 Build 0)  -->
<svg version="1.1" id="layer" xmlns="http://www.w3.org/2000/svg" xmlns:xlink="http://www.w3.org/1999/xlink" x="0px" y="0px"
	 viewBox="0 0 652 652" style="enable-background:new 0 0 652 652;" xml:space="preserve">
<style type="text/css">
	.st0{fill:#D2161E;}
	.st1{fill:#FFFFFF;}
</style>
<path class="st0" d="M26,224.3h600v203.4H26V224.3z"/>
<path class="st1" d="M93.7,272.3h47.2c18.7,0,31.4,10.6,31.4,25.2c0,13.1-8.8,24.6-22,30.4c9.5,4.5,15.7,13.8,15.7,24.4
	c0,21.9-21.3,35.5-45.1,35.5H69.6L93.7,272.3L93.7,272.3z M119.2,363.4c10.6,0,18.8-6.6,18.8-15.5c0-5-4.1-7.7-12.2-7.7h-17.5
	l-4.9,23.2H119.2L119.2,363.4z M124.4,318c10,0,17.6-6.2,17.6-14.5c-0.2-4.5-3.9-6.9-11.3-6.9h-13.2L113,318L124.4,318L124.4,318z
	 M328.1,351c0-28.6,28.2-52.1,56.8-52.1c15.4,0,26.5,7.1,33.3,16.3l-20.9,14c-2.7-4.2-9-6.6-14-6.6c-14.5,0-28,14.1-28,27.7
	c0,8.9,6.8,15.8,15.7,15.8c6.9,0,14.7-3.9,19.6-8.6l16.7,17.2c-10.8,9.9-23.7,15.1-38.4,15.1C345.5,389.8,328.1,372.5,328.1,351z
	 M492.4,351c0-28.6,28.2-52.1,56.8-52.1c15.4,0,26.5,7.1,33.3,16.3l-20.9,14c-2.7-4.2-9-6.6-14-6.6c-14.5,0-28,14.1-28,27.7
	c0,8.9,6.8,15.8,15.7,15.8c6.9,0,14.7-3.9,19.6-8.6l16.7,17.2c-10.8,9.9-23.7,15.1-38.4,15.1C509.8,389.8,492.4,372.5,492.4,351z
	 M213.6,366.1c-4.1,0-7.8-1.4-10.6-3.7l37.7-16.8l27.6-12.3c-0.6-5.9-2.6-11.4-5.7-16.2c-7-11-19.7-18.3-35.1-18.3
	c-28.4,0-56.6,23.4-56.6,52.1c0,2.3,0.2,4.6,0.6,6.8c1,5.8,3.3,11.1,6.7,15.7c7.2,9.9,19.3,16.4,33.8,16.4
	c13.8,0,27.6-5.6,38.1-14.7l-17.1-17.6C227.7,362.6,220.7,366.1,213.6,366.1L213.6,366.1z M226,322.6c5.1,0,9.4,2.1,12.3,5.4
	l-40.4,18C200.4,333.7,212.8,322.6,226,322.6L226,322.6z M322.8,267.2l-30.2,13.5l-4.3,20.2h-11.5l-4.9,22.7h11.6
	c-7.6,35.3-8.4,39-8.4,43.4c0,13.3,9.5,22.9,23.8,22.9c7.8,0,16.2-2.9,22.1-7.6l-3-19.8c-1.9,1.7-5.9,3.7-9.8,3.7
	c-3,0-4.7-1.5-4.7-5.2c0-2,0.5-4,7.4-37.3h18.1l4.7-22.7h-18.1L322.8,267.2L322.8,267.2z M434.5,272.3h27.1l-24.1,115.5h-27.1
	L434.5,272.3L434.5,272.3z M467.1,300.9h27.3l-18.2,86.9h-27.3L467.1,300.9L467.1,300.9z M471,278.5c0-9.1,8.1-16.3,16.6-16.3
	c7.8,0,13.5,6.2,13.5,13.8c0,8.6-7.8,16.1-16,16.1C476.8,292.1,471,286.1,471,278.5L471,278.5z"/>
</svg>
